<mxfile host="app.diagrams.net" agent="Mozilla/5.0 (Windows NT 10.0; Win64; x64) AppleWebKit/537.36 (KHTML, like Gecko) Chrome/131.0.0.0 Safari/537.36 Edg/131.0.0.0" version="25.0.1">
  <diagram name="Page-1" id="5DA2i8XYFKaUu4prpfQm">
    <mxGraphModel dx="2292" dy="1496" grid="1" gridSize="10" guides="1" tooltips="1" connect="1" arrows="1" fold="1" page="1" pageScale="1" pageWidth="1169" pageHeight="827" math="0" shadow="0">
      <root>
        <mxCell id="0" />
        <mxCell id="1" parent="0" />
        <mxCell id="4f7N82vlJ0Slf5aoWDd5-2" value="PROVINCE" style="whiteSpace=wrap;html=1;align=center;" vertex="1" parent="1">
          <mxGeometry x="220" y="110" width="100" height="40" as="geometry" />
        </mxCell>
        <mxCell id="4f7N82vlJ0Slf5aoWDd5-3" value="ID" style="ellipse;whiteSpace=wrap;html=1;align=center;fontStyle=4;" vertex="1" parent="1">
          <mxGeometry x="140" y="50" width="100" height="40" as="geometry" />
        </mxCell>
        <mxCell id="4f7N82vlJ0Slf5aoWDd5-4" value="NAME" style="ellipse;whiteSpace=wrap;html=1;align=center;" vertex="1" parent="1">
          <mxGeometry x="100" y="100" width="100" height="40" as="geometry" />
        </mxCell>
        <mxCell id="4f7N82vlJ0Slf5aoWDd5-5" value="" style="endArrow=none;html=1;rounded=0;exitX=0.5;exitY=1;exitDx=0;exitDy=0;entryX=0.5;entryY=0;entryDx=0;entryDy=0;" edge="1" parent="1" source="4f7N82vlJ0Slf5aoWDd5-3" target="4f7N82vlJ0Slf5aoWDd5-2">
          <mxGeometry relative="1" as="geometry">
            <mxPoint x="320" y="250" as="sourcePoint" />
            <mxPoint x="480" y="250" as="targetPoint" />
          </mxGeometry>
        </mxCell>
        <mxCell id="4f7N82vlJ0Slf5aoWDd5-6" value="" style="endArrow=none;html=1;rounded=0;exitX=0;exitY=0.25;exitDx=0;exitDy=0;entryX=1;entryY=0.5;entryDx=0;entryDy=0;" edge="1" parent="1" source="4f7N82vlJ0Slf5aoWDd5-2" target="4f7N82vlJ0Slf5aoWDd5-4">
          <mxGeometry relative="1" as="geometry">
            <mxPoint x="320" y="250" as="sourcePoint" />
            <mxPoint x="200" y="130" as="targetPoint" />
          </mxGeometry>
        </mxCell>
        <mxCell id="4f7N82vlJ0Slf5aoWDd5-7" value="HAVE" style="shape=rhombus;perimeter=rhombusPerimeter;whiteSpace=wrap;html=1;align=center;" vertex="1" parent="1">
          <mxGeometry x="380" y="100" width="120" height="60" as="geometry" />
        </mxCell>
        <mxCell id="4f7N82vlJ0Slf5aoWDd5-8" value="" style="endArrow=none;html=1;rounded=0;exitX=1;exitY=0.5;exitDx=0;exitDy=0;entryX=0;entryY=0.5;entryDx=0;entryDy=0;" edge="1" parent="1" source="4f7N82vlJ0Slf5aoWDd5-2" target="4f7N82vlJ0Slf5aoWDd5-7">
          <mxGeometry relative="1" as="geometry">
            <mxPoint x="320" y="250" as="sourcePoint" />
            <mxPoint x="480" y="250" as="targetPoint" />
          </mxGeometry>
        </mxCell>
        <mxCell id="4f7N82vlJ0Slf5aoWDd5-9" value="1" style="edgeLabel;html=1;align=center;verticalAlign=middle;resizable=0;points=[];" vertex="1" connectable="0" parent="4f7N82vlJ0Slf5aoWDd5-8">
          <mxGeometry x="-0.3111" y="-2" relative="1" as="geometry">
            <mxPoint x="-11" y="-12" as="offset" />
          </mxGeometry>
        </mxCell>
        <mxCell id="4f7N82vlJ0Slf5aoWDd5-10" value="" style="endArrow=none;html=1;rounded=0;exitX=1;exitY=0.5;exitDx=0;exitDy=0;entryX=0;entryY=0.5;entryDx=0;entryDy=0;" edge="1" parent="1" source="4f7N82vlJ0Slf5aoWDd5-7" target="4f7N82vlJ0Slf5aoWDd5-11">
          <mxGeometry relative="1" as="geometry">
            <mxPoint x="400" y="250" as="sourcePoint" />
            <mxPoint x="560" y="130" as="targetPoint" />
          </mxGeometry>
        </mxCell>
        <mxCell id="4f7N82vlJ0Slf5aoWDd5-12" value="M" style="edgeLabel;html=1;align=center;verticalAlign=middle;resizable=0;points=[];" vertex="1" connectable="0" parent="4f7N82vlJ0Slf5aoWDd5-10">
          <mxGeometry x="0.4667" y="1" relative="1" as="geometry">
            <mxPoint x="6" y="-9" as="offset" />
          </mxGeometry>
        </mxCell>
        <mxCell id="4f7N82vlJ0Slf5aoWDd5-11" value="DISTRICT" style="whiteSpace=wrap;html=1;align=center;" vertex="1" parent="1">
          <mxGeometry x="560" y="110" width="100" height="40" as="geometry" />
        </mxCell>
        <mxCell id="4f7N82vlJ0Slf5aoWDd5-13" value="CODE NAME" style="ellipse;whiteSpace=wrap;html=1;align=center;" vertex="1" parent="1">
          <mxGeometry x="175" width="100" height="40" as="geometry" />
        </mxCell>
        <mxCell id="4f7N82vlJ0Slf5aoWDd5-14" value="" style="endArrow=none;html=1;rounded=0;exitX=0.5;exitY=0;exitDx=0;exitDy=0;entryX=0.5;entryY=1;entryDx=0;entryDy=0;" edge="1" parent="1" source="4f7N82vlJ0Slf5aoWDd5-2" target="4f7N82vlJ0Slf5aoWDd5-13">
          <mxGeometry relative="1" as="geometry">
            <mxPoint x="400" y="250" as="sourcePoint" />
            <mxPoint x="560" y="250" as="targetPoint" />
          </mxGeometry>
        </mxCell>
        <mxCell id="4f7N82vlJ0Slf5aoWDd5-15" value="ID" style="ellipse;whiteSpace=wrap;html=1;align=center;fontStyle=4;" vertex="1" parent="1">
          <mxGeometry x="650" y="160" width="100" height="40" as="geometry" />
        </mxCell>
        <mxCell id="4f7N82vlJ0Slf5aoWDd5-16" value="NAME" style="ellipse;whiteSpace=wrap;html=1;align=center;" vertex="1" parent="1">
          <mxGeometry x="640" y="60" width="100" height="40" as="geometry" />
        </mxCell>
        <mxCell id="4f7N82vlJ0Slf5aoWDd5-17" value="" style="endArrow=none;html=1;rounded=0;exitX=0;exitY=0;exitDx=0;exitDy=0;entryX=0.899;entryY=1.013;entryDx=0;entryDy=0;entryPerimeter=0;" edge="1" parent="1" source="4f7N82vlJ0Slf5aoWDd5-15" target="4f7N82vlJ0Slf5aoWDd5-11">
          <mxGeometry relative="1" as="geometry">
            <mxPoint x="660" y="250" as="sourcePoint" />
            <mxPoint x="610" y="110" as="targetPoint" />
          </mxGeometry>
        </mxCell>
        <mxCell id="4f7N82vlJ0Slf5aoWDd5-18" value="" style="endArrow=none;html=1;rounded=0;exitX=0.5;exitY=0;exitDx=0;exitDy=0;entryX=0.5;entryY=1;entryDx=0;entryDy=0;" edge="1" parent="1" target="4f7N82vlJ0Slf5aoWDd5-16" source="4f7N82vlJ0Slf5aoWDd5-11">
          <mxGeometry relative="1" as="geometry">
            <mxPoint x="610" y="110" as="sourcePoint" />
            <mxPoint x="820" y="250" as="targetPoint" />
          </mxGeometry>
        </mxCell>
        <mxCell id="4f7N82vlJ0Slf5aoWDd5-19" value="1" style="edgeLabel;html=1;align=center;verticalAlign=middle;resizable=0;points=[];" vertex="1" connectable="0" parent="1">
          <mxGeometry x="670" y="120" as="geometry">
            <mxPoint x="-3" y="2" as="offset" />
          </mxGeometry>
        </mxCell>
        <mxCell id="4f7N82vlJ0Slf5aoWDd5-20" value="" style="endArrow=none;html=1;rounded=0;exitX=0.5;exitY=0;exitDx=0;exitDy=0;entryX=0.5;entryY=1;entryDx=0;entryDy=0;" edge="1" parent="1" source="4f7N82vlJ0Slf5aoWDd5-11" target="4f7N82vlJ0Slf5aoWDd5-21">
          <mxGeometry relative="1" as="geometry">
            <mxPoint x="610" y="110" as="sourcePoint" />
            <mxPoint x="610" y="50" as="targetPoint" />
          </mxGeometry>
        </mxCell>
        <mxCell id="4f7N82vlJ0Slf5aoWDd5-21" value="CODE NAME" style="ellipse;whiteSpace=wrap;html=1;align=center;" vertex="1" parent="1">
          <mxGeometry x="590" y="20" width="100" height="40" as="geometry" />
        </mxCell>
        <mxCell id="4f7N82vlJ0Slf5aoWDd5-22" value="WARD" style="whiteSpace=wrap;html=1;align=center;" vertex="1" parent="1">
          <mxGeometry x="900" y="110" width="100" height="40" as="geometry" />
        </mxCell>
        <mxCell id="4f7N82vlJ0Slf5aoWDd5-23" value="HAVE" style="shape=rhombus;perimeter=rhombusPerimeter;whiteSpace=wrap;html=1;align=center;" vertex="1" parent="1">
          <mxGeometry x="720" y="100" width="120" height="60" as="geometry" />
        </mxCell>
        <mxCell id="4f7N82vlJ0Slf5aoWDd5-24" value="" style="endArrow=none;html=1;rounded=0;exitX=1;exitY=0.5;exitDx=0;exitDy=0;entryX=0;entryY=0.5;entryDx=0;entryDy=0;" edge="1" parent="1" source="4f7N82vlJ0Slf5aoWDd5-11" target="4f7N82vlJ0Slf5aoWDd5-23">
          <mxGeometry relative="1" as="geometry">
            <mxPoint x="690" y="150" as="sourcePoint" />
            <mxPoint x="850" y="150" as="targetPoint" />
          </mxGeometry>
        </mxCell>
        <mxCell id="4f7N82vlJ0Slf5aoWDd5-26" value="" style="endArrow=none;html=1;rounded=0;exitX=1;exitY=0.5;exitDx=0;exitDy=0;entryX=0;entryY=0.5;entryDx=0;entryDy=0;" edge="1" parent="1" source="4f7N82vlJ0Slf5aoWDd5-23" target="4f7N82vlJ0Slf5aoWDd5-22">
          <mxGeometry relative="1" as="geometry">
            <mxPoint x="690" y="150" as="sourcePoint" />
            <mxPoint x="850" y="150" as="targetPoint" />
          </mxGeometry>
        </mxCell>
        <mxCell id="4f7N82vlJ0Slf5aoWDd5-27" value="M" style="edgeLabel;html=1;align=center;verticalAlign=middle;resizable=0;points=[];" vertex="1" connectable="0" parent="4f7N82vlJ0Slf5aoWDd5-26">
          <mxGeometry x="0.5333" y="-2" relative="1" as="geometry">
            <mxPoint x="4" y="-12" as="offset" />
          </mxGeometry>
        </mxCell>
        <mxCell id="4f7N82vlJ0Slf5aoWDd5-28" value="ID" style="ellipse;whiteSpace=wrap;html=1;align=center;fontStyle=4;" vertex="1" parent="1">
          <mxGeometry x="830" y="50" width="100" height="40" as="geometry" />
        </mxCell>
        <mxCell id="4f7N82vlJ0Slf5aoWDd5-29" value="NAME" style="ellipse;whiteSpace=wrap;html=1;align=center;" vertex="1" parent="1">
          <mxGeometry x="970" y="50" width="100" height="40" as="geometry" />
        </mxCell>
        <mxCell id="4f7N82vlJ0Slf5aoWDd5-30" value="CODE NAME" style="ellipse;whiteSpace=wrap;html=1;align=center;" vertex="1" parent="1">
          <mxGeometry x="900" y="10" width="100" height="40" as="geometry" />
        </mxCell>
        <mxCell id="4f7N82vlJ0Slf5aoWDd5-31" value="" style="endArrow=none;html=1;rounded=0;entryX=0.5;entryY=1;entryDx=0;entryDy=0;exitX=0.5;exitY=0;exitDx=0;exitDy=0;" edge="1" parent="1" source="4f7N82vlJ0Slf5aoWDd5-22" target="4f7N82vlJ0Slf5aoWDd5-28">
          <mxGeometry relative="1" as="geometry">
            <mxPoint x="700" y="150" as="sourcePoint" />
            <mxPoint x="860" y="150" as="targetPoint" />
          </mxGeometry>
        </mxCell>
        <mxCell id="4f7N82vlJ0Slf5aoWDd5-32" value="" style="endArrow=none;html=1;rounded=0;entryX=0.5;entryY=1;entryDx=0;entryDy=0;exitX=0.5;exitY=0;exitDx=0;exitDy=0;" edge="1" parent="1" source="4f7N82vlJ0Slf5aoWDd5-22" target="4f7N82vlJ0Slf5aoWDd5-30">
          <mxGeometry relative="1" as="geometry">
            <mxPoint x="960" y="120" as="sourcePoint" />
            <mxPoint x="890" y="100" as="targetPoint" />
          </mxGeometry>
        </mxCell>
        <mxCell id="4f7N82vlJ0Slf5aoWDd5-33" value="" style="endArrow=none;html=1;rounded=0;entryX=0.5;entryY=1;entryDx=0;entryDy=0;exitX=0.5;exitY=0;exitDx=0;exitDy=0;" edge="1" parent="1" source="4f7N82vlJ0Slf5aoWDd5-22" target="4f7N82vlJ0Slf5aoWDd5-29">
          <mxGeometry relative="1" as="geometry">
            <mxPoint x="960" y="120" as="sourcePoint" />
            <mxPoint x="960" y="60" as="targetPoint" />
          </mxGeometry>
        </mxCell>
        <mxCell id="4f7N82vlJ0Slf5aoWDd5-34" value="LOCATION" style="whiteSpace=wrap;html=1;align=center;" vertex="1" parent="1">
          <mxGeometry x="405" y="394" width="100" height="40" as="geometry" />
        </mxCell>
        <mxCell id="4f7N82vlJ0Slf5aoWDd5-35" value="LOCATE" style="shape=rhombus;perimeter=rhombusPerimeter;whiteSpace=wrap;html=1;align=center;" vertex="1" parent="1">
          <mxGeometry x="225" y="230" width="120" height="60" as="geometry" />
        </mxCell>
        <mxCell id="4f7N82vlJ0Slf5aoWDd5-36" value="" style="endArrow=none;html=1;rounded=0;exitX=0.5;exitY=1;exitDx=0;exitDy=0;entryX=0.5;entryY=0;entryDx=0;entryDy=0;" edge="1" parent="1" source="4f7N82vlJ0Slf5aoWDd5-35" target="4f7N82vlJ0Slf5aoWDd5-34">
          <mxGeometry relative="1" as="geometry">
            <mxPoint x="355" y="330" as="sourcePoint" />
            <mxPoint x="515" y="330" as="targetPoint" />
          </mxGeometry>
        </mxCell>
        <mxCell id="4f7N82vlJ0Slf5aoWDd5-66" value="M" style="edgeLabel;html=1;align=center;verticalAlign=middle;resizable=0;points=[];" vertex="1" connectable="0" parent="4f7N82vlJ0Slf5aoWDd5-36">
          <mxGeometry x="0.7609" relative="1" as="geometry">
            <mxPoint as="offset" />
          </mxGeometry>
        </mxCell>
        <mxCell id="4f7N82vlJ0Slf5aoWDd5-38" value="" style="endArrow=none;html=1;rounded=0;exitX=0.5;exitY=1;exitDx=0;exitDy=0;entryX=0.5;entryY=0;entryDx=0;entryDy=0;" edge="1" parent="1" source="4f7N82vlJ0Slf5aoWDd5-2" target="4f7N82vlJ0Slf5aoWDd5-35">
          <mxGeometry relative="1" as="geometry">
            <mxPoint x="510" y="330" as="sourcePoint" />
            <mxPoint x="670" y="330" as="targetPoint" />
          </mxGeometry>
        </mxCell>
        <mxCell id="4f7N82vlJ0Slf5aoWDd5-39" value="1" style="resizable=0;html=1;whiteSpace=wrap;align=right;verticalAlign=bottom;" connectable="0" vertex="1" parent="4f7N82vlJ0Slf5aoWDd5-38">
          <mxGeometry x="1" relative="1" as="geometry">
            <mxPoint y="-60" as="offset" />
          </mxGeometry>
        </mxCell>
        <mxCell id="4f7N82vlJ0Slf5aoWDd5-40" value="LOCATE" style="shape=rhombus;perimeter=rhombusPerimeter;whiteSpace=wrap;html=1;align=center;" vertex="1" parent="1">
          <mxGeometry x="395" y="230" width="120" height="60" as="geometry" />
        </mxCell>
        <mxCell id="4f7N82vlJ0Slf5aoWDd5-41" value="" style="endArrow=none;html=1;rounded=0;entryX=0.5;entryY=0;entryDx=0;entryDy=0;exitX=0.5;exitY=1;exitDx=0;exitDy=0;" edge="1" parent="1" source="4f7N82vlJ0Slf5aoWDd5-49" target="4f7N82vlJ0Slf5aoWDd5-34">
          <mxGeometry relative="1" as="geometry">
            <mxPoint x="510" y="330" as="sourcePoint" />
            <mxPoint x="670" y="330" as="targetPoint" />
          </mxGeometry>
        </mxCell>
        <mxCell id="4f7N82vlJ0Slf5aoWDd5-68" value="M" style="edgeLabel;html=1;align=center;verticalAlign=middle;resizable=0;points=[];" vertex="1" connectable="0" parent="4f7N82vlJ0Slf5aoWDd5-41">
          <mxGeometry x="0.7147" relative="1" as="geometry">
            <mxPoint x="-14" as="offset" />
          </mxGeometry>
        </mxCell>
        <mxCell id="4f7N82vlJ0Slf5aoWDd5-43" value="" style="endArrow=none;html=1;rounded=0;entryX=0.5;entryY=1;entryDx=0;entryDy=0;exitX=0.5;exitY=0;exitDx=0;exitDy=0;" edge="1" parent="1" source="4f7N82vlJ0Slf5aoWDd5-49" target="4f7N82vlJ0Slf5aoWDd5-22">
          <mxGeometry relative="1" as="geometry">
            <mxPoint x="510" y="330" as="sourcePoint" />
            <mxPoint x="670" y="330" as="targetPoint" />
          </mxGeometry>
        </mxCell>
        <mxCell id="4f7N82vlJ0Slf5aoWDd5-44" value="1" style="resizable=0;html=1;whiteSpace=wrap;align=right;verticalAlign=bottom;" connectable="0" vertex="1" parent="4f7N82vlJ0Slf5aoWDd5-43">
          <mxGeometry x="1" relative="1" as="geometry">
            <mxPoint x="-30" y="20" as="offset" />
          </mxGeometry>
        </mxCell>
        <mxCell id="4f7N82vlJ0Slf5aoWDd5-45" value="" style="endArrow=none;html=1;rounded=0;entryX=0.5;entryY=1;entryDx=0;entryDy=0;exitX=0.5;exitY=0;exitDx=0;exitDy=0;" edge="1" parent="1" source="4f7N82vlJ0Slf5aoWDd5-40" target="4f7N82vlJ0Slf5aoWDd5-11">
          <mxGeometry relative="1" as="geometry">
            <mxPoint x="510" y="330" as="sourcePoint" />
            <mxPoint x="670" y="330" as="targetPoint" />
          </mxGeometry>
        </mxCell>
        <mxCell id="4f7N82vlJ0Slf5aoWDd5-46" value="1" style="resizable=0;html=1;whiteSpace=wrap;align=right;verticalAlign=bottom;" connectable="0" vertex="1" parent="4f7N82vlJ0Slf5aoWDd5-45">
          <mxGeometry x="1" relative="1" as="geometry">
            <mxPoint y="20" as="offset" />
          </mxGeometry>
        </mxCell>
        <mxCell id="4f7N82vlJ0Slf5aoWDd5-47" value="" style="endArrow=none;html=1;rounded=0;entryX=0.5;entryY=0;entryDx=0;entryDy=0;exitX=0.5;exitY=1;exitDx=0;exitDy=0;" edge="1" parent="1" source="4f7N82vlJ0Slf5aoWDd5-40" target="4f7N82vlJ0Slf5aoWDd5-34">
          <mxGeometry relative="1" as="geometry">
            <mxPoint x="355" y="330" as="sourcePoint" />
            <mxPoint x="455" y="390" as="targetPoint" />
          </mxGeometry>
        </mxCell>
        <mxCell id="4f7N82vlJ0Slf5aoWDd5-67" value="M" style="edgeLabel;html=1;align=center;verticalAlign=middle;resizable=0;points=[];" vertex="1" connectable="0" parent="4f7N82vlJ0Slf5aoWDd5-47">
          <mxGeometry x="0.4328" y="1" relative="1" as="geometry">
            <mxPoint x="-11" as="offset" />
          </mxGeometry>
        </mxCell>
        <mxCell id="4f7N82vlJ0Slf5aoWDd5-49" value="LOCATE" style="shape=rhombus;perimeter=rhombusPerimeter;whiteSpace=wrap;html=1;align=center;" vertex="1" parent="1">
          <mxGeometry x="720" y="230" width="120" height="60" as="geometry" />
        </mxCell>
        <mxCell id="4f7N82vlJ0Slf5aoWDd5-69" value="&lt;u&gt;ID&lt;/u&gt;" style="ellipse;whiteSpace=wrap;html=1;align=center;" vertex="1" parent="1">
          <mxGeometry x="345" y="460" width="100" height="40" as="geometry" />
        </mxCell>
        <mxCell id="4f7N82vlJ0Slf5aoWDd5-70" value="STREET" style="ellipse;whiteSpace=wrap;html=1;align=center;" vertex="1" parent="1">
          <mxGeometry x="465" y="460" width="100" height="40" as="geometry" />
        </mxCell>
        <mxCell id="4f7N82vlJ0Slf5aoWDd5-78" value="" style="endArrow=none;html=1;rounded=0;entryX=0.5;entryY=0;entryDx=0;entryDy=0;exitX=0.5;exitY=1;exitDx=0;exitDy=0;" edge="1" parent="1" source="4f7N82vlJ0Slf5aoWDd5-34" target="4f7N82vlJ0Slf5aoWDd5-69">
          <mxGeometry relative="1" as="geometry">
            <mxPoint x="335" y="200" as="sourcePoint" />
            <mxPoint x="495" y="200" as="targetPoint" />
          </mxGeometry>
        </mxCell>
        <mxCell id="4f7N82vlJ0Slf5aoWDd5-79" value="" style="endArrow=none;html=1;rounded=0;exitX=0.5;exitY=1;exitDx=0;exitDy=0;entryX=0.5;entryY=0;entryDx=0;entryDy=0;" edge="1" parent="1" source="4f7N82vlJ0Slf5aoWDd5-34" target="4f7N82vlJ0Slf5aoWDd5-70">
          <mxGeometry relative="1" as="geometry">
            <mxPoint x="335" y="320" as="sourcePoint" />
            <mxPoint x="495" y="320" as="targetPoint" />
          </mxGeometry>
        </mxCell>
        <mxCell id="4f7N82vlJ0Slf5aoWDd5-80" value="DELIVERY" style="whiteSpace=wrap;html=1;align=center;" vertex="1" parent="1">
          <mxGeometry x="65" y="394" width="100" height="40" as="geometry" />
        </mxCell>
        <mxCell id="4f7N82vlJ0Slf5aoWDd5-81" value="TRANSPORT" style="shape=rhombus;perimeter=rhombusPerimeter;whiteSpace=wrap;html=1;align=center;" vertex="1" parent="1">
          <mxGeometry x="225" y="384" width="120" height="60" as="geometry" />
        </mxCell>
        <mxCell id="4f7N82vlJ0Slf5aoWDd5-82" value="" style="endArrow=none;html=1;rounded=0;entryX=0;entryY=0.5;entryDx=0;entryDy=0;exitX=1;exitY=0.5;exitDx=0;exitDy=0;" edge="1" parent="1" source="4f7N82vlJ0Slf5aoWDd5-81" target="4f7N82vlJ0Slf5aoWDd5-34">
          <mxGeometry relative="1" as="geometry">
            <mxPoint x="335" y="440" as="sourcePoint" />
            <mxPoint x="495" y="440" as="targetPoint" />
          </mxGeometry>
        </mxCell>
        <mxCell id="4f7N82vlJ0Slf5aoWDd5-83" value="1" style="resizable=0;html=1;whiteSpace=wrap;align=right;verticalAlign=bottom;" connectable="0" vertex="1" parent="4f7N82vlJ0Slf5aoWDd5-82">
          <mxGeometry x="1" relative="1" as="geometry" />
        </mxCell>
        <mxCell id="4f7N82vlJ0Slf5aoWDd5-84" value="" style="endArrow=none;html=1;rounded=0;entryX=1;entryY=0.5;entryDx=0;entryDy=0;exitX=0;exitY=0.5;exitDx=0;exitDy=0;" edge="1" parent="1" source="4f7N82vlJ0Slf5aoWDd5-81" target="4f7N82vlJ0Slf5aoWDd5-80">
          <mxGeometry relative="1" as="geometry">
            <mxPoint x="335" y="440" as="sourcePoint" />
            <mxPoint x="495" y="440" as="targetPoint" />
          </mxGeometry>
        </mxCell>
        <mxCell id="4f7N82vlJ0Slf5aoWDd5-85" value="M" style="resizable=0;html=1;whiteSpace=wrap;align=right;verticalAlign=bottom;" connectable="0" vertex="1" parent="4f7N82vlJ0Slf5aoWDd5-84">
          <mxGeometry x="1" relative="1" as="geometry">
            <mxPoint x="10" as="offset" />
          </mxGeometry>
        </mxCell>
        <mxCell id="4f7N82vlJ0Slf5aoWDd5-86" value="&lt;u&gt;NUMBER&lt;/u&gt;" style="ellipse;whiteSpace=wrap;html=1;align=center;" vertex="1" parent="1">
          <mxGeometry x="155" y="340" width="100" height="40" as="geometry" />
        </mxCell>
        <mxCell id="4f7N82vlJ0Slf5aoWDd5-87" value="DISTANCE" style="ellipse;whiteSpace=wrap;html=1;align=center;" vertex="1" parent="1">
          <mxGeometry x="125" y="290" width="100" height="40" as="geometry" />
        </mxCell>
        <mxCell id="4f7N82vlJ0Slf5aoWDd5-88" value="" style="endArrow=none;html=1;rounded=0;exitX=0.5;exitY=0;exitDx=0;exitDy=0;entryX=0.5;entryY=1;entryDx=0;entryDy=0;" edge="1" parent="1" source="4f7N82vlJ0Slf5aoWDd5-80" target="4f7N82vlJ0Slf5aoWDd5-86">
          <mxGeometry relative="1" as="geometry">
            <mxPoint x="195" y="320" as="sourcePoint" />
            <mxPoint x="355" y="320" as="targetPoint" />
          </mxGeometry>
        </mxCell>
        <mxCell id="4f7N82vlJ0Slf5aoWDd5-89" value="" style="endArrow=none;html=1;rounded=0;exitX=0.5;exitY=0;exitDx=0;exitDy=0;entryX=0.5;entryY=1;entryDx=0;entryDy=0;" edge="1" parent="1" source="4f7N82vlJ0Slf5aoWDd5-80" target="4f7N82vlJ0Slf5aoWDd5-87">
          <mxGeometry relative="1" as="geometry">
            <mxPoint x="195" y="320" as="sourcePoint" />
            <mxPoint x="355" y="320" as="targetPoint" />
          </mxGeometry>
        </mxCell>
        <mxCell id="4f7N82vlJ0Slf5aoWDd5-90" value="HOUR BOUGHT" style="ellipse;whiteSpace=wrap;html=1;align=center;" vertex="1" parent="1">
          <mxGeometry x="5" y="290" width="100" height="40" as="geometry" />
        </mxCell>
        <mxCell id="4f7N82vlJ0Slf5aoWDd5-91" value="HOUR RECEIVE" style="ellipse;whiteSpace=wrap;html=1;align=center;" vertex="1" parent="1">
          <mxGeometry x="-25" y="340" width="100" height="40" as="geometry" />
        </mxCell>
        <mxCell id="4f7N82vlJ0Slf5aoWDd5-92" value="" style="endArrow=none;html=1;rounded=0;exitX=0.5;exitY=1;exitDx=0;exitDy=0;entryX=0.5;entryY=0;entryDx=0;entryDy=0;" edge="1" parent="1" source="4f7N82vlJ0Slf5aoWDd5-90" target="4f7N82vlJ0Slf5aoWDd5-80">
          <mxGeometry relative="1" as="geometry">
            <mxPoint x="195" y="320" as="sourcePoint" />
            <mxPoint x="355" y="320" as="targetPoint" />
          </mxGeometry>
        </mxCell>
        <mxCell id="4f7N82vlJ0Slf5aoWDd5-93" value="" style="endArrow=none;html=1;rounded=0;exitX=0.5;exitY=1;exitDx=0;exitDy=0;entryX=0.5;entryY=0;entryDx=0;entryDy=0;" edge="1" parent="1" source="4f7N82vlJ0Slf5aoWDd5-91" target="4f7N82vlJ0Slf5aoWDd5-80">
          <mxGeometry relative="1" as="geometry">
            <mxPoint x="195" y="320" as="sourcePoint" />
            <mxPoint x="355" y="320" as="targetPoint" />
          </mxGeometry>
        </mxCell>
        <mxCell id="4f7N82vlJ0Slf5aoWDd5-95" value="TIME RECEIVE" style="ellipse;whiteSpace=wrap;html=1;align=center;" vertex="1" parent="1">
          <mxGeometry x="65" y="250" width="100" height="40" as="geometry" />
        </mxCell>
        <mxCell id="4f7N82vlJ0Slf5aoWDd5-96" value="" style="endArrow=none;html=1;rounded=0;exitX=0.5;exitY=1;exitDx=0;exitDy=0;entryX=0.5;entryY=0;entryDx=0;entryDy=0;" edge="1" parent="1" source="4f7N82vlJ0Slf5aoWDd5-95" target="4f7N82vlJ0Slf5aoWDd5-80">
          <mxGeometry relative="1" as="geometry">
            <mxPoint x="195" y="320" as="sourcePoint" />
            <mxPoint x="355" y="320" as="targetPoint" />
          </mxGeometry>
        </mxCell>
        <mxCell id="4f7N82vlJ0Slf5aoWDd5-97" value="TAKE" style="shape=rhombus;perimeter=rhombusPerimeter;whiteSpace=wrap;html=1;align=center;" vertex="1" parent="1">
          <mxGeometry x="-115" y="580" width="120" height="60" as="geometry" />
        </mxCell>
        <mxCell id="4f7N82vlJ0Slf5aoWDd5-98" value="DELIVERY PARTNER" style="whiteSpace=wrap;html=1;align=center;" vertex="1" parent="1">
          <mxGeometry x="-105" y="787" width="100" height="40" as="geometry" />
        </mxCell>
        <mxCell id="4f7N82vlJ0Slf5aoWDd5-99" value="VEHICLE" style="whiteSpace=wrap;html=1;align=center;" vertex="1" parent="1">
          <mxGeometry x="245" y="787" width="100" height="40" as="geometry" />
        </mxCell>
        <mxCell id="4f7N82vlJ0Slf5aoWDd5-100" value="" style="endArrow=none;html=1;rounded=0;entryX=0.5;entryY=1;entryDx=0;entryDy=0;exitX=0.5;exitY=0;exitDx=0;exitDy=0;" edge="1" parent="1" source="4f7N82vlJ0Slf5aoWDd5-98" target="4f7N82vlJ0Slf5aoWDd5-97">
          <mxGeometry relative="1" as="geometry">
            <mxPoint x="175" y="670" as="sourcePoint" />
            <mxPoint x="415" y="540" as="targetPoint" />
          </mxGeometry>
        </mxCell>
        <mxCell id="4f7N82vlJ0Slf5aoWDd5-103" value="1" style="edgeLabel;html=1;align=center;verticalAlign=middle;resizable=0;points=[];" vertex="1" connectable="0" parent="4f7N82vlJ0Slf5aoWDd5-100">
          <mxGeometry x="-0.3012" relative="1" as="geometry">
            <mxPoint x="-10" y="44" as="offset" />
          </mxGeometry>
        </mxCell>
        <mxCell id="4f7N82vlJ0Slf5aoWDd5-101" value="" style="endArrow=none;html=1;rounded=0;exitX=0.5;exitY=0;exitDx=0;exitDy=0;entryX=0.5;entryY=1;entryDx=0;entryDy=0;" edge="1" parent="1" source="4f7N82vlJ0Slf5aoWDd5-97" target="4f7N82vlJ0Slf5aoWDd5-80">
          <mxGeometry relative="1" as="geometry">
            <mxPoint x="255" y="440" as="sourcePoint" />
            <mxPoint x="415" y="440" as="targetPoint" />
          </mxGeometry>
        </mxCell>
        <mxCell id="4f7N82vlJ0Slf5aoWDd5-105" value="M" style="edgeLabel;html=1;align=center;verticalAlign=middle;resizable=0;points=[];" vertex="1" connectable="0" parent="4f7N82vlJ0Slf5aoWDd5-101">
          <mxGeometry x="0.4928" relative="1" as="geometry">
            <mxPoint x="10" y="-21" as="offset" />
          </mxGeometry>
        </mxCell>
        <mxCell id="4f7N82vlJ0Slf5aoWDd5-107" value="STORE" style="whiteSpace=wrap;html=1;align=center;" vertex="1" parent="1">
          <mxGeometry x="390" y="-110" width="100" height="40" as="geometry" />
        </mxCell>
        <mxCell id="4f7N82vlJ0Slf5aoWDd5-109" value="LOCATE" style="shape=rhombus;perimeter=rhombusPerimeter;whiteSpace=wrap;html=1;align=center;" vertex="1" parent="1">
          <mxGeometry x="480" y="-20" width="120" height="60" as="geometry" />
        </mxCell>
        <mxCell id="4f7N82vlJ0Slf5aoWDd5-110" value="" style="endArrow=none;html=1;rounded=0;entryX=0.25;entryY=0;entryDx=0;entryDy=0;exitX=0.5;exitY=1;exitDx=0;exitDy=0;" edge="1" parent="1" source="4f7N82vlJ0Slf5aoWDd5-109" target="4f7N82vlJ0Slf5aoWDd5-11">
          <mxGeometry relative="1" as="geometry">
            <mxPoint x="390" y="30" as="sourcePoint" />
            <mxPoint x="550" y="30" as="targetPoint" />
          </mxGeometry>
        </mxCell>
        <mxCell id="4f7N82vlJ0Slf5aoWDd5-111" value="1" style="resizable=0;html=1;whiteSpace=wrap;align=right;verticalAlign=bottom;" connectable="0" vertex="1" parent="4f7N82vlJ0Slf5aoWDd5-110">
          <mxGeometry x="1" relative="1" as="geometry">
            <mxPoint x="5" as="offset" />
          </mxGeometry>
        </mxCell>
        <mxCell id="4f7N82vlJ0Slf5aoWDd5-112" value="" style="endArrow=none;html=1;rounded=0;entryX=0.5;entryY=1;entryDx=0;entryDy=0;exitX=0.5;exitY=0;exitDx=0;exitDy=0;" edge="1" parent="1" source="4f7N82vlJ0Slf5aoWDd5-109" target="4f7N82vlJ0Slf5aoWDd5-107">
          <mxGeometry relative="1" as="geometry">
            <mxPoint x="390" y="30" as="sourcePoint" />
            <mxPoint x="550" y="30" as="targetPoint" />
          </mxGeometry>
        </mxCell>
        <mxCell id="4f7N82vlJ0Slf5aoWDd5-113" value="M" style="resizable=0;html=1;whiteSpace=wrap;align=right;verticalAlign=bottom;" connectable="0" vertex="1" parent="4f7N82vlJ0Slf5aoWDd5-112">
          <mxGeometry x="1" relative="1" as="geometry">
            <mxPoint x="25" y="30" as="offset" />
          </mxGeometry>
        </mxCell>
        <mxCell id="4f7N82vlJ0Slf5aoWDd5-114" value="LOCATE" style="shape=rhombus;perimeter=rhombusPerimeter;whiteSpace=wrap;html=1;align=center;" vertex="1" parent="1">
          <mxGeometry x="275" y="-20" width="120" height="60" as="geometry" />
        </mxCell>
        <mxCell id="4f7N82vlJ0Slf5aoWDd5-115" value="" style="endArrow=none;html=1;rounded=0;entryX=0.5;entryY=0;entryDx=0;entryDy=0;exitX=0.5;exitY=1;exitDx=0;exitDy=0;" edge="1" parent="1" source="4f7N82vlJ0Slf5aoWDd5-114" target="4f7N82vlJ0Slf5aoWDd5-2">
          <mxGeometry relative="1" as="geometry">
            <mxPoint x="390" y="30" as="sourcePoint" />
            <mxPoint x="550" y="30" as="targetPoint" />
          </mxGeometry>
        </mxCell>
        <mxCell id="4f7N82vlJ0Slf5aoWDd5-116" value="1" style="resizable=0;html=1;whiteSpace=wrap;align=right;verticalAlign=bottom;" connectable="0" vertex="1" parent="4f7N82vlJ0Slf5aoWDd5-115">
          <mxGeometry x="1" relative="1" as="geometry" />
        </mxCell>
        <mxCell id="4f7N82vlJ0Slf5aoWDd5-117" value="" style="endArrow=none;html=1;rounded=0;exitX=0.5;exitY=0;exitDx=0;exitDy=0;entryX=0.5;entryY=1;entryDx=0;entryDy=0;" edge="1" parent="1" source="4f7N82vlJ0Slf5aoWDd5-114" target="4f7N82vlJ0Slf5aoWDd5-107">
          <mxGeometry relative="1" as="geometry">
            <mxPoint x="390" y="30" as="sourcePoint" />
            <mxPoint x="550" y="30" as="targetPoint" />
          </mxGeometry>
        </mxCell>
        <mxCell id="4f7N82vlJ0Slf5aoWDd5-118" value="M" style="resizable=0;html=1;whiteSpace=wrap;align=right;verticalAlign=bottom;" connectable="0" vertex="1" parent="4f7N82vlJ0Slf5aoWDd5-117">
          <mxGeometry x="1" relative="1" as="geometry">
            <mxPoint x="-9" y="30" as="offset" />
          </mxGeometry>
        </mxCell>
        <mxCell id="4f7N82vlJ0Slf5aoWDd5-119" value="ADDRESS" style="ellipse;whiteSpace=wrap;html=1;align=center;" vertex="1" parent="1">
          <mxGeometry x="445" y="-170" width="100" height="40" as="geometry" />
        </mxCell>
        <mxCell id="4f7N82vlJ0Slf5aoWDd5-121" value="ID" style="ellipse;whiteSpace=wrap;html=1;align=center;fontStyle=4;" vertex="1" parent="1">
          <mxGeometry x="330" y="-170" width="100" height="40" as="geometry" />
        </mxCell>
        <mxCell id="4f7N82vlJ0Slf5aoWDd5-122" value="" style="endArrow=none;html=1;rounded=0;exitX=0.5;exitY=1;exitDx=0;exitDy=0;entryX=0.5;entryY=0;entryDx=0;entryDy=0;" edge="1" parent="1" source="4f7N82vlJ0Slf5aoWDd5-121" target="4f7N82vlJ0Slf5aoWDd5-107">
          <mxGeometry relative="1" as="geometry">
            <mxPoint x="390" y="10" as="sourcePoint" />
            <mxPoint x="550" y="10" as="targetPoint" />
          </mxGeometry>
        </mxCell>
        <mxCell id="4f7N82vlJ0Slf5aoWDd5-123" value="" style="endArrow=none;html=1;rounded=0;exitX=0.5;exitY=0;exitDx=0;exitDy=0;entryX=0.5;entryY=1;entryDx=0;entryDy=0;" edge="1" parent="1" source="4f7N82vlJ0Slf5aoWDd5-107" target="4f7N82vlJ0Slf5aoWDd5-119">
          <mxGeometry relative="1" as="geometry">
            <mxPoint x="390" y="10" as="sourcePoint" />
            <mxPoint x="550" y="10" as="targetPoint" />
          </mxGeometry>
        </mxCell>
        <mxCell id="4f7N82vlJ0Slf5aoWDd5-124" value="VEHICLE" style="ellipse;whiteSpace=wrap;html=1;align=center;" vertex="1" parent="1">
          <mxGeometry x="175" y="440" width="100" height="40" as="geometry" />
        </mxCell>
        <mxCell id="4f7N82vlJ0Slf5aoWDd5-125" value="" style="endArrow=none;html=1;rounded=0;exitX=1;exitY=1;exitDx=0;exitDy=0;entryX=0;entryY=0;entryDx=0;entryDy=0;" edge="1" parent="1" source="4f7N82vlJ0Slf5aoWDd5-80" target="4f7N82vlJ0Slf5aoWDd5-124">
          <mxGeometry relative="1" as="geometry">
            <mxPoint x="390" y="500" as="sourcePoint" />
            <mxPoint x="550" y="500" as="targetPoint" />
          </mxGeometry>
        </mxCell>
        <mxCell id="4f7N82vlJ0Slf5aoWDd5-126" style="edgeStyle=orthogonalEdgeStyle;rounded=0;orthogonalLoop=1;jettySize=auto;html=1;exitX=0.5;exitY=1;exitDx=0;exitDy=0;" edge="1" parent="1" source="4f7N82vlJ0Slf5aoWDd5-99" target="4f7N82vlJ0Slf5aoWDd5-99">
          <mxGeometry relative="1" as="geometry" />
        </mxCell>
        <mxCell id="4f7N82vlJ0Slf5aoWDd5-127" value="USE" style="shape=rhombus;perimeter=rhombusPerimeter;whiteSpace=wrap;html=1;align=center;" vertex="1" parent="1">
          <mxGeometry x="235" y="580" width="120" height="60" as="geometry" />
        </mxCell>
        <mxCell id="4f7N82vlJ0Slf5aoWDd5-128" value="" style="endArrow=none;html=1;rounded=0;exitX=0.5;exitY=1;exitDx=0;exitDy=0;entryX=0.5;entryY=0;entryDx=0;entryDy=0;" edge="1" parent="1" source="4f7N82vlJ0Slf5aoWDd5-80" target="4f7N82vlJ0Slf5aoWDd5-127">
          <mxGeometry relative="1" as="geometry">
            <mxPoint x="390" y="500" as="sourcePoint" />
            <mxPoint x="550" y="500" as="targetPoint" />
          </mxGeometry>
        </mxCell>
        <mxCell id="4f7N82vlJ0Slf5aoWDd5-130" value="M" style="edgeLabel;html=1;align=center;verticalAlign=middle;resizable=0;points=[];" vertex="1" connectable="0" parent="4f7N82vlJ0Slf5aoWDd5-128">
          <mxGeometry x="-0.7507" relative="1" as="geometry">
            <mxPoint y="-8" as="offset" />
          </mxGeometry>
        </mxCell>
        <mxCell id="4f7N82vlJ0Slf5aoWDd5-129" value="" style="endArrow=none;html=1;rounded=0;exitX=0.5;exitY=1;exitDx=0;exitDy=0;entryX=0.5;entryY=0;entryDx=0;entryDy=0;" edge="1" parent="1" source="4f7N82vlJ0Slf5aoWDd5-127" target="4f7N82vlJ0Slf5aoWDd5-99">
          <mxGeometry relative="1" as="geometry">
            <mxPoint x="390" y="650" as="sourcePoint" />
            <mxPoint x="550" y="650" as="targetPoint" />
          </mxGeometry>
        </mxCell>
        <mxCell id="4f7N82vlJ0Slf5aoWDd5-131" value="1" style="edgeLabel;html=1;align=center;verticalAlign=middle;resizable=0;points=[];" vertex="1" connectable="0" parent="4f7N82vlJ0Slf5aoWDd5-129">
          <mxGeometry x="0.7583" y="1" relative="1" as="geometry">
            <mxPoint x="-11" y="11" as="offset" />
          </mxGeometry>
        </mxCell>
        <mxCell id="4f7N82vlJ0Slf5aoWDd5-133" value="TYPE" style="ellipse;whiteSpace=wrap;html=1;align=center;" vertex="1" parent="1">
          <mxGeometry x="305" y="850" width="100" height="40" as="geometry" />
        </mxCell>
        <mxCell id="4f7N82vlJ0Slf5aoWDd5-134" value="&lt;u&gt;ID&lt;/u&gt;" style="ellipse;whiteSpace=wrap;html=1;align=center;" vertex="1" parent="1">
          <mxGeometry x="190" y="850" width="100" height="40" as="geometry" />
        </mxCell>
        <mxCell id="4f7N82vlJ0Slf5aoWDd5-135" value="NAME" style="ellipse;whiteSpace=wrap;html=1;align=center;" vertex="1" parent="1">
          <mxGeometry x="-20" y="850" width="100" height="40" as="geometry" />
        </mxCell>
        <mxCell id="4f7N82vlJ0Slf5aoWDd5-136" value="&lt;u&gt;ID&lt;/u&gt;" style="ellipse;whiteSpace=wrap;html=1;align=center;" vertex="1" parent="1">
          <mxGeometry x="-190" y="850" width="100" height="40" as="geometry" />
        </mxCell>
        <mxCell id="4f7N82vlJ0Slf5aoWDd5-137" value="FEE" style="ellipse;whiteSpace=wrap;html=1;align=center;" vertex="1" parent="1">
          <mxGeometry x="-105" y="880" width="100" height="40" as="geometry" />
        </mxCell>
        <mxCell id="4f7N82vlJ0Slf5aoWDd5-138" value="" style="endArrow=none;html=1;rounded=0;entryX=0.5;entryY=0;entryDx=0;entryDy=0;exitX=0.5;exitY=1;exitDx=0;exitDy=0;" edge="1" parent="1" source="4f7N82vlJ0Slf5aoWDd5-98" target="4f7N82vlJ0Slf5aoWDd5-135">
          <mxGeometry relative="1" as="geometry">
            <mxPoint x="230" y="790" as="sourcePoint" />
            <mxPoint x="390" y="790" as="targetPoint" />
          </mxGeometry>
        </mxCell>
        <mxCell id="4f7N82vlJ0Slf5aoWDd5-139" value="" style="endArrow=none;html=1;rounded=0;exitX=0.5;exitY=1;exitDx=0;exitDy=0;entryX=0.5;entryY=0;entryDx=0;entryDy=0;" edge="1" parent="1" source="4f7N82vlJ0Slf5aoWDd5-98" target="4f7N82vlJ0Slf5aoWDd5-137">
          <mxGeometry relative="1" as="geometry">
            <mxPoint x="230" y="790" as="sourcePoint" />
            <mxPoint x="390" y="790" as="targetPoint" />
          </mxGeometry>
        </mxCell>
        <mxCell id="4f7N82vlJ0Slf5aoWDd5-140" value="" style="endArrow=none;html=1;rounded=0;exitX=0.5;exitY=0;exitDx=0;exitDy=0;entryX=0.5;entryY=1;entryDx=0;entryDy=0;" edge="1" parent="1" source="4f7N82vlJ0Slf5aoWDd5-136" target="4f7N82vlJ0Slf5aoWDd5-98">
          <mxGeometry relative="1" as="geometry">
            <mxPoint x="230" y="790" as="sourcePoint" />
            <mxPoint x="390" y="790" as="targetPoint" />
          </mxGeometry>
        </mxCell>
        <mxCell id="4f7N82vlJ0Slf5aoWDd5-141" value="" style="endArrow=none;html=1;rounded=0;entryX=0.5;entryY=0;entryDx=0;entryDy=0;exitX=0.5;exitY=1;exitDx=0;exitDy=0;" edge="1" parent="1" source="4f7N82vlJ0Slf5aoWDd5-99" target="4f7N82vlJ0Slf5aoWDd5-133">
          <mxGeometry relative="1" as="geometry">
            <mxPoint x="230" y="790" as="sourcePoint" />
            <mxPoint x="390" y="790" as="targetPoint" />
          </mxGeometry>
        </mxCell>
        <mxCell id="4f7N82vlJ0Slf5aoWDd5-142" value="" style="endArrow=none;html=1;rounded=0;entryX=0.5;entryY=0;entryDx=0;entryDy=0;exitX=0.5;exitY=1;exitDx=0;exitDy=0;" edge="1" parent="1" source="4f7N82vlJ0Slf5aoWDd5-99" target="4f7N82vlJ0Slf5aoWDd5-134">
          <mxGeometry relative="1" as="geometry">
            <mxPoint x="230" y="790" as="sourcePoint" />
            <mxPoint x="390" y="790" as="targetPoint" />
          </mxGeometry>
        </mxCell>
      </root>
    </mxGraphModel>
  </diagram>
</mxfile>
